<svg xmlns="http://www.w3.org/2000/svg" width="120" height="120" version="1" contentScriptType="text/ecmascript"><style>.msql-cover{fill:#ffed00}.msql-coat-light{fill:#aecc53}.msql-coat-dark20{fill:#309a3e}.msql-coat-dark10{fill:#6eb440}.msql-coat-dark{fill:#008d3f}</style><defs><linearGradient id="circle-gradient"><stop offset="0%" class="msql-coat-dark" stop-color="#008D3F"/><stop offset="10%" class="msql-coat-dark10" stop-color="#6EB440"/><stop offset="35%" class="msql-coat-light" stop-color="#AECC53"/><stop offset="70%" class="msql-coat-dark" stop-color="#008D3F"/></linearGradient><linearGradient id="mixed-gradient"><stop offset="0%" class="msql-coat-dark" stop-color="#008D3F"/><stop offset="5%" class="msql-coat-dark10" stop-color="#6EB440"/><stop offset="40%" class="msql-coat-light" stop-color="#AECC53"/><stop offset="50%" class="msql-coat-dark10" stop-color="#6EB440"/><stop offset="60%" class="msql-coat-dark20" stop-color="#309A3E"/><stop offset="90%" class="msql-coat-dark" stop-color="#008D3F"/></linearGradient></defs><circle cx="60" cy="60" r="60" fill="#f4fbca"/><g><g transform="matrix(.28 0 0 .28 32 25)"><ellipse cx="100" cy="200" rx="100" ry="40" class="msql-cover"/><path class="msql-coat" fill="url(#circle-gradient)" d="M0 200a100 40 0 0 0 200 0v50a100 40 0 0 1-200 0z"/></g><g><path class="msql-cover" d="M32 58.6c0 3.36 19.6 11.2 28 11.2 8.4 0 28-7.84 28-11.2 0-3.36-19.6-11.2-28-11.2-8.4 0-28 7.84-28 11.2z"/><path class="msql-coat" fill="url(#mixed-gradient)" d="M0 300c0 30 70 100 100 100s100-70 100-100v125c0 30-70 100-100 100S0 455 0 425z" transform="matrix(.28 0 0 .112 32 25)"/></g><g><path class="msql-coat-light" d="M32 50.2l28 11.2v-14L32 36.2z"/><path class="msql-coat-dark" d="M60 61.4l28-11.2v-14L60 47.4z"/><path class="msql-cover" d="M32 36.2l28 11.2 28-11.2L60 25z"/></g></g><g fill="#007434"><path d="M14.639 36.686l-.78 1.21 7.383 4.758.936-1.452-5.265-3.393c-.075-1.612-.04-2.296.398-2.977.468-.727 1.01-.87 1.918-.285l5.114 3.296.907-1.407L20 33.052c-.085-1.596-.076-2.275.383-2.986.507-.787 1.045-.825 1.917-.285l5.114 3.296.927-1.437-5.538-3.57c-1.331-.857-2.491-.62-3.32.667-.634.983-.815 2.194-.586 3.733-.994-.319-1.852.05-2.495 1.048-.663 1.029-.799 2.269-.58 3.823l-1.183-.655M27.706 20.515c-2.373 1.932-2.446 3.639-.32 6.249 2.114 2.596 3.789 2.857 6.161.925 2.373-1.932 2.457-3.625.343-6.221-2.125-2.61-3.812-2.886-6.184-.953m.931 1.144c1.41-1.148 2.286-.956 3.843.956 1.535 1.885 1.557 2.795.147 3.943-1.41 1.148-2.297.942-3.832-.942-1.557-1.912-1.567-2.809-.158-3.957M44.337 20.998l1.238-.582-5.36-11.403-1.58.743 1.125 2.395c.26.553.506 1.034.8 1.533a6.028 6.028 0 0 0-3.073.57c-2.02.95-2.548 2.45-1.077 5.578 1.286 2.736 2.757 3.835 4.76 2.893 1.239-.582 2.03-1.69 2.524-2.757l.643 1.03m-1.36-2.006c-.698 1.183-1.065 1.714-1.912 2.112-1.205.567-1.97.21-3.034-2.054-1.065-2.265-.813-3 .49-3.612.798-.375 1.494-.503 2.464-.681l1.991 4.235M52.689 15.024c1.445-.3 1.906-1.352 1.584-2.903-.392-1.886-1.694-2.663-4.373-2.106-2.784.58-3.751 1.939-3.044 5.34.69 3.313 2.088 4.291 5.083 3.668 1.023-.213 2.526-.673 3.295-1.219l-.393-1.095c-.912.3-2.088.655-2.97.839-1.656.344-2.477.11-3.042-1.72l3.86-.804m-4.152-.515c-.372-2.055.078-2.719 1.752-3.067 1.463-.304 2.04-.002 2.274 1.035.11.528.115 1.17-.607 1.321l-3.42.711M63.367 8.983h-.414c-1.17 0-2.448.575-3.69 1.565l-.18-1.332-1.35-.001-.004 8.784h1.746l.003-6.371c1.332-.63 2.214-1.007 3.15-1.007h.54l.199-1.638M68.346 9.867l-1.442-.316-1.877 8.581 1.705.374 1.332-6.084c1.491-.503 2.478-.803 3.446-.592.808.177 1.017.573.778 1.663l-1.3 5.944 1.705.373 1.408-6.436c.339-1.547-.289-2.55-1.801-2.882-1.266-.277-2.66.027-4.137.717l.183-1.342M85.5 20.385c.718.758.966 1.248.26 2.399-.81 1.319-1.412 1.266-2.97.33-.798-.49-1.326-.834-3.206-2.073l-.804 1.07a20.98 20.98 0 0 0 3.14 2.35c2.547 1.563 3.897 1.738 5.395-.701.97-1.58 1.066-2.873-.302-4.326l-1.744-1.873c-.748-.776-.953-1.303-.284-2.392.866-1.411 1.456-1.134 2.898-.248.997.612 2.12 1.364 2.99 1.941l.78-1.063c-.914-.92-1.996-1.67-2.993-2.281-2.393-1.47-3.69-1.8-5.196.654-.989 1.61-1.03 2.916.256 4.297l1.78 1.916M99.888 22.639c-2.495-2.67-4.536-2.56-8.1.771-3.563 3.331-3.81 5.36-1.314 8.03 2.507 2.682 4.536 2.56 8.1-.771 3.563-3.332 3.822-5.348 1.314-8.03m-1.17 1.094c1.586 1.696 1.247 3.047-1.435 5.555-2.682 2.508-4.053 2.754-5.64 1.058-1.585-1.696-1.234-3.034 1.448-5.542 2.683-2.508 4.041-2.767 5.627-1.071m-10.263 7.894c.358 1.489.875 3.15 1.888 4.839l1.708-.808c-1.045-1.487-1.875-2.954-2.462-4.426l-1.134.395M107.143 32.846l-.856-1.583-8.803 4.76c-1.235.668-1.837 1.75-.895 3.492.762 1.41 1.557 2.842 2.42 4.135l1.176-.739-2.097-3.879c-.394-.728-.27-1.143.474-1.545l8.581-4.64"/></g></svg>
