<svg xmlns="http://www.w3.org/2000/svg" width="120" height="195"><g transform="scale(2.41)"><g id="no-offset-base"><circle cx="25" cy="25" r="22" fill="#fff" stroke="#dc0506" stroke-width="5"/><g id="no-offset-base-wocircle"><g><g><path d="M-17.344-3.248c0-.487.085-.918.255-1.292.17-.374.391-.68.663-.918.284-.25.595-.436.935-.561a3.135 3.135 0 0 1 1.054-.187c.352 0 .697.062 1.037.187.352.125.663.312.935.561.284.238.51.544.68.918.17.374.255.805.255 1.292v6.392c0 .499-.085.935-.255 1.309-.17.363-.396.669-.68.918-.272.238-.583.42-.935.544-.34.125-.685.187-1.037.187-.351 0-.702-.062-1.054-.187a3.108 3.108 0 0 1-.935-.544 2.894 2.894 0 0 1-.663-.918c-.17-.374-.255-.81-.255-1.309v-6.392m1.734 6.392c0 .42.114.731.34.935.238.193.516.289.833.289.318 0 .59-.096.816-.289.238-.204.357-.516.357-.935v-6.392c0-.42-.119-.725-.357-.918a1.178 1.178 0 0 0-.816-.306 1.24 1.24 0 0 0-.833.306c-.226.193-.34.499-.34.918v6.392M-10.703-6.104h5.168v1.632H-8.97V-.8h2.992V.832H-8.97V6h-1.734V-6.104M-4.928-6.104H.24v1.632h-3.434V-.8h2.992V.832h-2.992V6h-1.734V-6.104M6.157-2.619H4.423v-.391c0-.397-.096-.737-.289-1.02-.18-.295-.493-.442-.935-.442-.238 0-.436.045-.595.136-.147.09-.266.21-.357.357-.079.136-.136.3-.17.493a3.134 3.134 0 0 0-.05.578c0 .238.005.442.016.612.023.159.068.3.136.425.068.113.165.215.29.306.135.09.317.181.543.272l1.326.527c.386.147.697.323.935.527.238.193.42.425.544.697.136.26.227.567.272.918.046.34.068.731.068 1.173 0 .51-.05.986-.153 1.428-.102.43-.272.805-.51 1.122-.226.306-.532.55-.918.731-.385.181-.855.272-1.41.272-.42 0-.81-.074-1.174-.221a2.933 2.933 0 0 1-.935-.595c-.26-.26-.47-.567-.629-.918a2.915 2.915 0 0 1-.22-1.139v-.646H1.94v.544c0 .317.091.606.272.867.193.25.51.374.952.374.295 0 .522-.04.68-.119.17-.09.295-.21.374-.357.091-.159.148-.351.17-.578.023-.227.034-.476.034-.748a7.33 7.33 0 0 0-.034-.782 1.15 1.15 0 0 0-.153-.493.794.794 0 0 0-.306-.306A3.525 3.525 0 0 0 3.42.73L2.18.22C1.43-.086.926-.488.665-.987.417-1.497.292-2.132.292-2.891c0-.453.063-.884.187-1.292.125-.408.306-.76.544-1.054a2.63 2.63 0 0 1 .935-.697c.374-.181.81-.272 1.31-.272.43 0 .821.08 1.172.238.363.159.67.368.918.629.261.26.46.555.595.884.136.317.204.646.204.986v.85M6.954-6.104h5.168v1.632H8.688v3.553h2.992V.713H8.688v3.553h3.434V6H6.954V-6.104M14.368-4.472h-2.006v-1.632h5.746v1.632h-2.006V6h-1.734V-4.472" transform="matrix(1 0 0 1.3 24.3 25)"/></g></g><g><path fill="none" stroke="#dc0506" stroke-width="3.5" d="M8.737 41.263L41.263 8.737"/></g></g></g></g><g><path fill="#fff" stroke="#000" d="M2 125h116v68H2z"/><g><path d="M7.74 144.01V129.78h4.98c1.947 0 3.393.798 4.337 2.393.351.605.566 1.172.644 1.699.078.527.117 1.537.117 3.027 0 1.602-.055 2.673-.166 3.213a4.384 4.384 0 0 1-.634 1.543c-.424.664-1.006 1.224-1.748 1.68-.736.45-1.631.674-2.686.674H7.74m2.158-12.188v10.157h2.588c1.185 0 2.064-.414 2.637-1.24.234-.359.38-.743.44-1.153.065-.417.097-1.286.097-2.607 0-1.277-.036-2.159-.107-2.647a2.825 2.825 0 0 0-.528-1.318c-.592-.795-1.438-1.192-2.539-1.192H9.898M19.879 136.9c0-1.712.045-2.815.137-3.31.09-.495.254-.95.488-1.367.332-.619.876-1.202 1.63-1.748.762-.547 1.703-.82 2.823-.82 1.113 0 2.048.273 2.803.82.761.546 1.315 1.13 1.66 1.748.228.416.387.872.478 1.367.092.495.137 1.598.137 3.31 0 1.713-.045 2.816-.137 3.31-.09.496-.25.951-.478 1.368-.345.625-.899 1.208-1.66 1.748-.755.534-1.69.801-2.803.801-1.12 0-2.06-.267-2.822-.8-.755-.541-1.3-1.124-1.631-1.749a4.389 4.389 0 0 1-.488-1.367c-.092-.495-.137-1.598-.137-3.31m2.158 0c0 1.464.049 2.415.147 2.851.104.436.296.83.576 1.182.215.286.508.533.879.742.37.202.81.303 1.318.303s.947-.101 1.318-.303c.371-.209.664-.456.88-.742.28-.352.468-.746.566-1.182.104-.436.156-1.387.156-2.852 0-1.458-.052-2.405-.156-2.841a3.045 3.045 0 0 0-.567-1.202 2.907 2.907 0 0 0-.879-.722c-.37-.209-.81-.313-1.318-.313s-.947.104-1.318.313c-.371.208-.664.449-.88.722-.28.365-.471.765-.575 1.202-.098.436-.147 1.383-.147 2.841M37.35 144.01V129.78h2.04l6.436 10.117h.04v-10.117h2.167v14.229h-2.04l-6.436-10.117h-.05v10.117H37.35M50.582 136.9c0-1.712.046-2.815.137-3.31.09-.495.254-.95.488-1.367.332-.619.876-1.202 1.63-1.748.763-.547 1.703-.82 2.823-.82 1.113 0 2.048.273 2.803.82.762.546 1.315 1.13 1.66 1.748.228.416.387.872.479 1.367.09.495.136 1.598.136 3.31 0 1.713-.045 2.816-.136 3.31-.092.496-.251.951-.479 1.368-.345.625-.898 1.208-1.66 1.748-.755.534-1.69.801-2.803.801-1.12 0-2.06-.267-2.822-.8-.755-.541-1.299-1.124-1.631-1.749a4.389 4.389 0 0 1-.488-1.367c-.091-.495-.137-1.598-.137-3.31m2.158 0c0 1.464.05 2.415.147 2.851.104.436.296.83.576 1.182.215.286.508.533.879.742.37.202.81.303 1.318.303s.947-.101 1.319-.303c.37-.209.664-.456.878-.742.28-.352.47-.746.567-1.182.104-.436.156-1.387.156-2.852 0-1.458-.052-2.405-.156-2.841a3.045 3.045 0 0 0-.567-1.202 2.907 2.907 0 0 0-.878-.722c-.372-.209-.811-.313-1.319-.313-.508 0-.947.104-1.318.313-.371.208-.664.449-.88.722-.28.365-.471.765-.575 1.202-.098.436-.147 1.383-.147 2.841M65.67 144.01v-12.315h-3.897v-1.914h9.952v1.914h-3.897v12.315H65.67M77.838 139.195v-9.414h2.158v9.17c0 .983.277 1.735.83 2.256.56.514 1.25.772 2.07.772.82 0 1.508-.258 2.061-.772.56-.52.84-1.273.84-2.256v-9.17h2.158v9.414c0 1.485-.491 2.68-1.475 3.584-.983.899-2.177 1.348-3.584 1.348-1.412 0-2.61-.45-3.593-1.348-.977-.905-1.465-2.1-1.465-3.584M89.43 142.174l1.425-1.621c.534.43 1.15.774 1.846 1.035.697.26 1.426.39 2.188.39.879 0 1.569-.182 2.07-.546.501-.365.752-.843.752-1.436 0-1.12-.619-1.761-1.856-1.924-.325-.039-.628-.078-.908-.117l-.976-.137c-1.23-.169-2.168-.618-2.813-1.347-.644-.736-.967-1.621-.967-2.657 0-1.21.404-2.207 1.211-2.988.814-.781 1.957-1.172 3.428-1.172.879 0 1.706.14 2.48.42.775.28 1.488.635 2.14 1.065l-1.202 1.777a7.942 7.942 0 0 0-1.68-.791 5.714 5.714 0 0 0-1.836-.303c-.664 0-1.227.17-1.689.508-.462.339-.693.846-.693 1.524 0 .403.156.78.468 1.132.313.352.83.583 1.553.694.189.032.417.068.684.107.267.033.573.068.918.108 1.328.162 2.308.644 2.94 1.445.637.8.956 1.686.956 2.656 0 1.309-.452 2.324-1.357 3.047-.905.723-2.12 1.084-3.643 1.084-2.142 0-3.955-.651-5.44-1.953M102.154 144.01V129.78h9.102v2.041h-6.943v4.053h5.917v1.924h-5.917v4.18h6.943v2.03h-9.102M6.89 158.9c0-1.712.046-2.815.137-3.31.091-.495.254-.95.489-1.367.332-.619.875-1.202 1.63-1.748.762-.547 1.703-.82 2.823-.82 1.113 0 2.047.273 2.802.82.762.546 1.316 1.13 1.66 1.748.228.416.388.872.48 1.367.09.495.136 1.598.136 3.31 0 1.713-.046 2.816-.137 3.31-.091.496-.25.951-.478 1.368-.345.625-.899 1.208-1.66 1.748-.756.534-1.69.801-2.803.801-1.12 0-2.06-.267-2.823-.8-.755-.541-1.298-1.124-1.63-1.749a4.389 4.389 0 0 1-.489-1.367c-.09-.495-.136-1.598-.136-3.31m2.158 0c0 1.464.049 2.415.146 2.851.104.436.297.83.576 1.182.215.286.508.533.88.742.37.202.81.303 1.318.303s.947-.101 1.318-.303c.371-.209.664-.456.879-.742.28-.352.469-.746.566-1.182.105-.436.157-1.387.157-2.852 0-1.458-.052-2.405-.157-2.841a3.045 3.045 0 0 0-.566-1.202 2.907 2.907 0 0 0-.879-.722c-.371-.209-.81-.313-1.318-.313s-.948.104-1.319.313c-.37.208-.664.449-.879.722-.28.365-.472.765-.576 1.202-.097.436-.146 1.383-.146 2.841M19.557 166.01V151.78h9.101v2.041h-6.943v4.19h5.918v1.924h-5.918v6.074h-2.158M30.299 166.01V151.78H39.4v2.041h-6.943v4.19h5.918v1.924h-5.918v6.074h-2.158M39.8 164.174l1.427-1.621c.533.43 1.149.774 1.845 1.035.697.26 1.426.39 2.188.39.879 0 1.569-.182 2.07-.546.501-.365.752-.843.752-1.436 0-1.12-.618-1.761-1.855-1.924-.326-.039-.629-.078-.909-.117l-.976-.137c-1.23-.169-2.168-.618-2.813-1.347-.644-.736-.967-1.621-.967-2.657 0-1.21.404-2.207 1.211-2.988.814-.781 1.957-1.172 3.428-1.172.88 0 1.706.14 2.48.42.775.28 1.488.635 2.14 1.065l-1.202 1.777a7.942 7.942 0 0 0-1.68-.791 5.714 5.714 0 0 0-1.835-.303c-.665 0-1.228.17-1.69.508-.462.339-.693.846-.693 1.524 0 .403.156.78.468 1.132.313.352.83.583 1.553.694.189.032.417.068.684.107.267.033.573.068.918.108 1.328.162 2.308.644 2.94 1.445.637.8.956 1.686.956 2.656 0 1.309-.452 2.324-1.357 3.047-.905.723-2.12 1.084-3.643 1.084-2.142 0-3.955-.651-5.44-1.953M52.525 166.01V151.78h9.102v2.041h-6.943v4.053h5.918v1.924h-5.918v4.18h6.943v2.03h-9.102M66.08 166.01v-12.315h-3.896v-1.914h9.95v1.914h-3.896v12.315H66.08M78.502 166.01V151.78h9.102v2.041H80.66v4.19h5.918v1.924H80.66v6.074h-2.158M88.766 158.9c0-1.712.045-2.815.136-3.31.091-.495.254-.95.489-1.367.332-.619.875-1.202 1.63-1.748.762-.547 1.703-.82 2.823-.82 1.113 0 2.047.273 2.802.82.762.546 1.316 1.13 1.66 1.748.228.416.388.872.48 1.367.09.495.136 1.598.136 3.31 0 1.713-.046 2.816-.137 3.31-.091.496-.25.951-.478 1.368-.345.625-.899 1.208-1.66 1.748-.756.534-1.69.801-2.803.801-1.12 0-2.06-.267-2.823-.8-.755-.541-1.298-1.124-1.63-1.749a4.389 4.389 0 0 1-.489-1.367c-.09-.495-.136-1.598-.136-3.31m2.158 0c0 1.464.049 2.415.146 2.851.104.436.297.83.576 1.182.215.286.508.533.88.742.37.202.81.303 1.318.303s.947-.101 1.318-.303c.371-.209.664-.456.879-.742.28-.352.469-.746.566-1.182.105-.436.157-1.387.157-2.852 0-1.458-.052-2.405-.157-2.841a3.045 3.045 0 0 0-.566-1.202 2.907 2.907 0 0 0-.879-.722c-.371-.209-.81-.313-1.318-.313s-.948.104-1.319.313c-.37.208-.664.449-.879.722-.28.365-.472.765-.576 1.202-.097.436-.146 1.383-.146 2.841M103.59 153.695v4.317h3.262c.807 0 1.412-.225 1.816-.674.404-.45.605-.977.605-1.582 0-.723-.24-1.263-.722-1.621-.404-.293-.928-.44-1.572-.44h-3.39m-2.157 12.315V151.78h5.566c1.217 0 2.181.313 2.89.938.398.345.733.778 1.007 1.299.28.52.42 1.1.42 1.738 0 .918-.248 1.732-.743 2.441-.488.703-1.162 1.201-2.021 1.494l3.3 6.319h-2.558l-2.94-6.074h-2.763v6.074h-2.158M8.219 175.822v4.59h3.203c.8 0 1.396-.24 1.787-.723.397-.481.596-1.005.596-1.572 0-.86-.31-1.49-.928-1.894-.397-.267-.908-.4-1.533-.4H8.219M6.06 188.01V173.78h5.166a7.06 7.06 0 0 1 1.591.176c.515.117 1.049.39 1.602.82.43.332.794.791 1.094 1.377.3.58.449 1.254.449 2.022 0 1.015-.381 1.982-1.143 2.9-.755.918-1.862 1.377-3.32 1.377H8.219v5.557H6.06M16.402 188l5.196-14.238h1.777L28.57 188h-2.265l-1.094-3.213h-5.4L18.678 188h-2.276m4.043-5.117h4.121c-.3-.88-.537-1.566-.712-2.06l-.45-1.329c-.123-.384-.25-.775-.38-1.172-.13-.397-.303-.934-.518-1.611l-.547 1.69c-.137.416-.27.82-.4 1.21-.124.391-.27.827-.44 1.309-.163.482-.387 1.136-.674 1.963M34.977 182.219v-2.041h5.058v2.9c0 1.413-.491 2.608-1.474 3.584-.984.977-2.185 1.465-3.604 1.465-1.12 0-2.06-.267-2.822-.8-.755-.541-1.3-1.124-1.631-1.749a4.389 4.389 0 0 1-.488-1.367c-.092-.495-.137-1.598-.137-3.31 0-1.713.045-2.816.137-3.311.09-.495.254-.95.488-1.367.332-.619.876-1.202 1.63-1.748.762-.547 1.703-.82 2.823-.82 1.348 0 2.461.416 3.34 1.25.885.826 1.439 1.816 1.66 2.968h-2.275c-.176-.547-.505-1.025-.987-1.436-.475-.41-1.054-.615-1.738-.615-.508 0-.947.104-1.318.313-.371.208-.664.449-.88.722-.28.365-.471.765-.575 1.202-.098.436-.147 1.383-.147 2.841 0 1.465.049 2.416.147 2.852.104.436.296.83.576 1.182.215.286.508.533.879.742.37.202.81.303 1.318.303.82 0 1.51-.28 2.07-.84.567-.56.85-1.29.85-2.188v-.732h-2.9M42.545 188.01V173.78h2.158v14.229h-2.158M47.701 188.01V173.78h2.041l6.436 10.117h.039v-10.117h2.168v14.229h-2.041l-6.436-10.117h-.049v10.117h-2.158M59.918 188l5.195-14.238h1.778L72.086 188H69.82l-1.093-3.213h-5.4L62.192 188h-2.275m4.043-5.117h4.121c-.3-.88-.537-1.566-.713-2.06l-.45-1.329c-.123-.384-.25-.775-.38-1.172-.13-.397-.303-.934-.518-1.611l-.546 1.69c-.137.416-.27.82-.4 1.21-.124.391-.271.827-.44 1.309-.163.482-.388 1.136-.674 1.963M76.295 188.01v-12.315h-3.897v-1.914h9.952v1.914h-3.897v12.315h-2.158M83.912 188.01V173.78h2.158v14.229h-2.158M88.59 180.9c0-1.712.045-2.815.137-3.31.09-.495.253-.95.488-1.367.332-.619.875-1.202 1.63-1.748.762-.547 1.703-.82 2.823-.82 1.113 0 2.047.273 2.803.82.761.546 1.315 1.13 1.66 1.748.228.416.387.872.478 1.367.092.495.137 1.598.137 3.31 0 1.713-.045 2.816-.137 3.31-.09.496-.25.951-.478 1.368-.345.625-.899 1.208-1.66 1.748-.756.534-1.69.801-2.803.801-1.12 0-2.06-.267-2.822-.8-.756-.541-1.3-1.124-1.631-1.749a4.389 4.389 0 0 1-.488-1.367c-.092-.495-.137-1.598-.137-3.31m2.158 0c0 1.464.049 2.415.147 2.851.104.436.296.83.576 1.182.215.286.508.533.879.742.37.202.81.303 1.318.303s.947-.101 1.318-.303c.371-.209.664-.456.88-.742.28-.352.468-.746.566-1.182.104-.436.156-1.387.156-2.852 0-1.458-.052-2.405-.156-2.841a3.045 3.045 0 0 0-.567-1.202 2.907 2.907 0 0 0-.879-.722c-.37-.209-.81-.313-1.318-.313s-.947.104-1.318.313c-.371.208-.664.449-.88.722-.28.365-.471.765-.575 1.202-.098.436-.147 1.383-.147 2.841M101.256 188.01V173.78h2.04l6.436 10.117h.04v-10.117h2.167v14.229h-2.04l-6.436-10.117h-.049v10.117h-2.158"/></g></g></svg>
